<?xml version="1.0" encoding="UTF-8" standalone="no"?>
<svg
   xmlns:dc="http://purl.org/dc/elements/1.1/"
   xmlns:cc="http://creativecommons.org/ns#"
   xmlns:rdf="http://www.w3.org/1999/02/22-rdf-syntax-ns#"
   xmlns:svg="http://www.w3.org/2000/svg"
   xmlns="http://www.w3.org/2000/svg"
   xmlns:sodipodi="http://sodipodi.sourceforge.net/DTD/sodipodi-0.dtd"
   xmlns:inkscape="http://www.inkscape.org/namespaces/inkscape"
   sodipodi:docname="drawing.svg"
   inkscape:version="1.0 (4035a4fb49, 2020-05-01)"
   id="svg8"
   version="1.1"
   viewBox="0 0 512 512"
   height="512"
   width="512">
  <defs
     id="defs2" />
  <sodipodi:namedview
     fit-margin-bottom="0"
     fit-margin-right="0"
     fit-margin-left="0"
     fit-margin-top="0"
     inkscape:document-rotation="0"
     inkscape:pagecheckerboard="false"
     inkscape:window-maximized="1"
     inkscape:window-y="-12"
     inkscape:window-x="-12"
     inkscape:window-height="1890"
     inkscape:window-width="3000"
     units="px"
     showgrid="true"
     inkscape:current-layer="layer1"
     inkscape:document-units="px"
     inkscape:cy="179.39444"
     inkscape:cx="-635.99057"
     inkscape:zoom="0.7"
     inkscape:pageshadow="2"
     inkscape:pageopacity="0.0"
     borderopacity="1.0"
     bordercolor="#666666"
     pagecolor="#ffffff"
     id="base">
    <inkscape:grid
       originy="-705.99961"
       originx="-907.66301"
       spacingy="20"
       spacingx="20"
       id="grid1358"
       type="xygrid" />
  </sodipodi:namedview>
  <metadata
     id="metadata5">
    <rdf:RDF>
      <cc:Work
         rdf:about="">
        <dc:format>image/svg+xml</dc:format>
        <dc:type
           rdf:resource="http://purl.org/dc/dcmitype/StillImage" />
        <dc:title></dc:title>
      </cc:Work>
    </rdf:RDF>
  </metadata>
  <g
     transform="translate(-907.66301,-717.24961)"
     id="layer1"
     inkscape:groupmode="layer"
     inkscape:label="Layer 1">
    <path
       id="path845"
       d="m 936.0303,1225.0435 c -11.09759,-3.9533 -17.14534,-8.9748 -22.77649,-18.9113 l -4.92664,-8.6934 -0.53986,-193.0773 c -0.38264,-136.84537 0.10306,-196.17456 1.66788,-203.71203 2.70049,-13.0081 14.19446,-25.67132 26.6898,-29.40483 10.78649,-3.22293 196.96011,-3.44457 208.66091,-0.24842 37.0598,10.1231 38.0908,64.40832 1.4169,74.5937 -4.4578,1.23804 -37.2438,2.0397 -83.6918,2.04638 l -76.36291,0.0118 v 150.75521 150.75519 h 149.65321 149.6532 l 0.6093,-83.2602 0.6094,-83.26024 5.5385,-8.52502 c 7.1265,-10.96931 17.8549,-16.0067 34.2141,-16.06491 10.7261,-0.0382 13.1526,0.71345 20.5349,6.36135 4.6042,3.52255 10.2157,9.50842 12.4697,13.30193 3.9904,6.71549 4.1131,9.62108 4.6586,110.22639 0.622,114.6958 0.5008,115.9593 -12.2756,127.9176 -13.59,12.7197 -3.1877,12.1382 -215.4426,12.0429 -160.1973,-0.072 -193.89854,-0.552 -200.3605,-2.854 z M 1132.982,1017.77 c -3.2516,-1.7254 -7.5153,-4.8119 -9.4751,-6.8588 -5.5173,-5.7628 -11.1258,-19.62515 -11.1735,-27.61789 -0.099,-16.42493 3.2162,-20.31335 89.5914,-105.10084 l 82.3098,-80.7969 -32.4213,-0.98533 c -31.5029,-0.95743 -32.6591,-1.14289 -40.8219,-6.54826 -11.4736,-7.59776 -18.9122,-23.43674 -17.1518,-36.52095 1.5911,-11.82579 9.8799,-23.59881 21.0121,-29.84508 l 8.7805,-4.92664 h 79.8115 c 43.8964,0 83.2488,0.72623 87.4499,1.61385 10.6482,2.24986 23.5397,15.62325 26.5378,27.52997 2.6669,10.5907 3.0827,149.096 0.488,162.50917 -2.2119,11.43442 -10.6183,22.9115 -19.8207,27.06127 -5.6824,2.5624 -11.2085,3.245 -21.5434,2.66101 -12.6686,-0.71584 -14.5371,-1.3912 -21.0841,-7.6209 -12.5146,-11.90812 -14.4926,-18.80183 -14.5416,-50.68256 -0.024,-15.44502 -0.6267,-28.08185 -1.3397,-28.08185 -0.713,0 -30.6423,29.0874 -66.5096,64.63865 -82.2519,81.52706 -97.2013,95.71538 -105.0212,99.67428 -8.1185,4.11 -27.2444,4.0543 -35.0771,-0.1021 z"
       style="fill:#000000;stroke-width:1" />
  </g>
</svg>
