<?xml version="1.0" encoding="UTF-8" standalone="no"?>
<svg
   xmlns:dc="http://purl.org/dc/elements/1.1/"
   xmlns:cc="http://creativecommons.org/ns#"
   xmlns:rdf="http://www.w3.org/1999/02/22-rdf-syntax-ns#"
   xmlns:svg="http://www.w3.org/2000/svg"
   xmlns="http://www.w3.org/2000/svg"
   xmlns:sodipodi="http://sodipodi.sourceforge.net/DTD/sodipodi-0.dtd"
   xmlns:inkscape="http://www.inkscape.org/namespaces/inkscape"
   sodipodi:docname="gear.svg"
   inkscape:version="1.0 (4035a4fb49, 2020-05-01)"
   id="svg8"
   version="1.1"
   viewBox="0 0 511.41864 512"
   height="512"
   width="511.41864">
  <defs
     id="defs2" />
  <sodipodi:namedview
     fit-margin-bottom="0"
     fit-margin-right="0"
     fit-margin-left="0"
     fit-margin-top="0"
     inkscape:document-rotation="0"
     inkscape:pagecheckerboard="false"
     inkscape:window-maximized="1"
     inkscape:window-y="-12"
     inkscape:window-x="-12"
     inkscape:window-height="1890"
     inkscape:window-width="3000"
     units="px"
     showgrid="true"
     inkscape:current-layer="layer1"
     inkscape:document-units="px"
     inkscape:cy="405.52354"
     inkscape:cx="165.62285"
     inkscape:zoom="0.7"
     inkscape:pageshadow="2"
     inkscape:pageopacity="0.0"
     borderopacity="1.0"
     bordercolor="#666666"
     pagecolor="#ffffff"
     id="base">
    <inkscape:grid
       originy="-479.8705"
       originx="-106.04959"
       spacingy="20"
       spacingx="20"
       id="grid1358"
       type="xygrid" />
  </sodipodi:namedview>
  <metadata
     id="metadata5">
    <rdf:RDF>
      <cc:Work
         rdf:about="">
        <dc:format>image/svg+xml</dc:format>
        <dc:type
           rdf:resource="http://purl.org/dc/dcmitype/StillImage" />
        <dc:title></dc:title>
      </cc:Work>
    </rdf:RDF>
  </metadata>
  <g
     transform="translate(-106.04959,-491.12051)"
     id="layer1"
     inkscape:groupmode="layer"
     inkscape:label="Layer 1">
    <path
       id="path859"
       d="m 329.33072,1000.8335 c -6.98056,-3.12316 -16.17441,-13.40405 -17.44655,-19.50953 -0.48794,-2.34175 -1.23015,-12.19351 -1.64933,-21.89283 -0.85788,-19.84951 -3.8765,-26.99802 -14.46418,-34.25271 -8.38236,-5.74376 -21.68441,-7.29075 -29.21063,-3.39692 -3.14227,1.62556 -9.90171,7.0274 -15.02097,12.00384 -13.32301,12.95164 -20.48928,16.81236 -31.22345,16.82078 -14.17987,0.0196 -18.77379,-2.68564 -39.37481,-23.11652 -15.78953,-15.65902 -19.6681,-20.69914 -22.03329,-28.63181 -4.26917,-14.31834 -1.41503,-22.2179 13.93077,-38.55724 6.9483,-7.39813 13.50063,-15.73269 14.56078,-18.521 5.0312,-13.233 0.20316,-27.60603 -12.41723,-36.96558 -4.49991,-3.33715 -9.41639,-4.30473 -26.45269,-5.20628 -17.40832,-0.92114 -22.07977,-1.86776 -27.79283,-5.63208 -14.07512,-9.27411 -14.68672,-11.20437 -14.68672,-46.35332 0,-35.53419 0.85904,-38.60859 13.17205,-47.14164 6.84329,-4.74228 9.97818,-5.43828 28.9536,-6.42702 17.399,-0.90664 22.28732,-1.85639 26.80659,-5.20804 12.62039,-9.35955 17.44843,-23.73237 12.41723,-36.96538 -1.06013,-2.78851 -7.63842,-11.1505 -14.61843,-18.58234 -6.98,-7.43203 -13.24031,-16.00956 -13.9118,-19.06122 -0.67151,-3.05185 -1.54926,-6.62159 -1.9506,-7.93306 -0.40134,-1.31166 0.52862,-6.6218 2.06658,-11.80076 2.2563,-7.59776 6.11819,-12.67225 19.99808,-26.27724 21.69485,-21.26519 28.01536,-25.16265 40.82154,-25.17212 11.25431,-0.008 22.43719,6.05021 34.18428,18.51999 12.92373,13.71878 25.87742,16.43207 40.02191,8.38301 11.84254,-6.73913 16.80239,-17.88429 16.80239,-37.75624 0,-19.39387 3.17036,-28.03709 13.04883,-35.5743 l 7.21554,-5.50543 h 31.84873 c 29.24484,0 32.30134,0.33513 37.38468,4.09909 11.23648,8.32001 14.35353,15.51416 14.35353,33.12799 0,18.50805 2.35876,27.12065 9.57403,34.95796 6.85223,7.44292 14.26484,11.09194 22.53217,11.09194 10.54201,0 16.27037,-3.01609 29.32404,-15.4397 14.79368,-14.07963 18.20385,-15.91163 29.61871,-15.91163 13.83084,0 20.06425,3.80754 40.51878,24.74992 28.46179,29.14062 29.98342,40.58709 8.44409,63.52099 -18.70942,19.92084 -21.85956,28.67609 -15.65788,43.51879 3.20779,7.67736 12.8525,16.66833 19.32742,18.01742 2.34177,0.48791 12.2495,1.19233 22.01718,1.56521 14.38919,0.54924 18.89535,1.48684 23.74482,4.94 12.54543,8.93297 13.36056,11.82964 13.36056,47.47141 0,30.2795 -0.27647,32.71862 -4.35802,38.44064 -7.84803,11.00216 -13.25711,13.14835 -36.16203,14.34833 -16.95876,0.88822 -21.9503,1.86187 -26.33161,5.13613 -8.32298,6.21971 -12.68897,13.15601 -13.88263,22.05547 -1.51419,11.28903 2.04642,18.96285 15.16747,32.68828 14.02411,14.67008 15.60067,17.7813 15.60067,30.78643 0,12.8176 -1.4131,15.04923 -24.27885,38.34327 -14.27908,14.54643 -19.67271,18.72733 -26.96415,20.90135 -14.99475,4.4707 -26.16574,0.40816 -41.83129,-15.21285 -4.3108,-4.29866 -10.4831,-9.44106 -13.71621,-11.42776 -10.42635,-6.40703 -24.53884,-4.06235 -34.94089,5.80509 -8.48494,8.04888 -11.10638,16.4481 -11.10638,35.58495 0,14.51391 -0.66808,18.08776 -4.40878,23.58405 -9.27289,13.62442 -12.25222,14.62382 -45.20362,15.15972 -21.78684,0.3545 -31.3445,-0.2314 -35.7212,-2.1895 z m 66.14183,-151.70734 c 25.94628,-8.67864 50.90012,-29.62427 61.67158,-51.76537 10.87443,-22.35253 11.4053,-24.70466 11.4053,-50.53089 0,-20.84512 -0.66708,-26.21011 -4.47857,-36.02014 -12.48715,-32.13944 -36.29306,-55.1909 -68.59831,-66.42428 -13.92116,-4.84065 -45.64323,-5.67714 -60.1663,-1.58657 -36.79417,10.36377 -66.89093,40.72832 -76.63263,77.31436 -3.17209,11.91331 -3.54206,40.13831 -0.67125,51.20984 10.92692,42.14031 44.25552,73.17324 88.0809,82.01393 9.57758,1.93202 38.36085,-0.522 49.38928,-4.21088 z"
       style="fill:#000000;stroke-width:1" />
  </g>
</svg>
